<svg height="512" viewBox="0 0 512 512" width="512" xmlns="http://www.w3.org/2000/svg"><path d="m456 24h-400a31.991 31.991 0 0 0 -32 32v280a31.991 31.991 0 0 0 32 32h400a31.991 31.991 0 0 0 32-32v-280a31.991 31.991 0 0 0 -32-32z" fill="#348fd9"/><path d="m456 24h-8l-344 344h352a31.991 31.991 0 0 0 32-32v-280a31.991 31.991 0 0 0 -32-32z" fill="#3086cd"/><g fill="#2d7dbf"><path d="m56 48h16v16h-16z"/><path d="m88 48h16v16h-16z"/><path d="m120 48h16v16h-16z"/><path d="m56 80h400v16h-400z"/></g><circle cx="112" cy="184" fill="#4db7e5" r="48"/><path d="m104 208a7.971 7.971 0 0 1 -5.656-2.344l-16-16 11.312-11.312 10.344 10.344 26.344-26.344 11.312 11.312-32 32a7.971 7.971 0 0 1 -5.656 2.344z" fill="#348fd9"/><path d="m72 256h80v16h-80z" fill="#4db7e5"/><path d="m72 288h80v16h-80z" fill="#4db7e5"/><circle cx="256" cy="184" fill="#4db7e5" r="48"/><path d="m248 208a7.971 7.971 0 0 1 -5.656-2.344l-16-16 11.312-11.312 10.344 10.344 26.344-26.344 11.312 11.312-32 32a7.971 7.971 0 0 1 -5.656 2.344z" fill="#348fd9"/><path d="m216 256h80v16h-80z" fill="#4db7e5"/><path d="m216 288h80v16h-80z" fill="#4db7e5"/><circle cx="400" cy="184" fill="#4db7e5" r="48"/><path d="m392 208a7.971 7.971 0 0 1 -5.656-2.344l-16-16 11.312-11.312 10.344 10.344 26.344-26.344 11.312 11.312-32 32a7.971 7.971 0 0 1 -5.656 2.344z" fill="#348fd9"/><path d="m360 256h80v16h-80z" fill="#4db7e5"/><path d="m360 288h80v16h-80z" fill="#4db7e5"/><path d="m184 334.484a37.27 37.27 0 0 1 9.572-25.007 55.706 55.706 0 0 0 14.428-37.477v-29.652c0-30.663-23.628-57.4-54.277-58.322a56 56 0 0 0 -57.723 55.974v32a55.706 55.706 0 0 0 14.428 37.477 37.481 37.481 0 0 1 -11.109 58.523h105.362a37.614 37.614 0 0 1 -20.681-33.516z" fill="#3086cd"/><path d="m248 413.67v64.33a10 10 0 0 1 -10 10h-214v-74.33a32.01 32.01 0 0 1 20.12-29.72l36.19-14.47a37.7 37.7 0 0 0 23.69-35v-.03a38.113 38.113 0 0 0 -9.87-25.3 55.729 55.729 0 0 1 -14.13-37.15v-32a55.991 55.991 0 0 1 58.53-55.94c30.06 1.32 53.47 26.69 53.47 56.78v31.16a55.729 55.729 0 0 1 -14.13 37.15 38.113 38.113 0 0 0 -9.87 25.3v.03a37.668 37.668 0 0 0 21.58 34.07c.69.34 1.39.64 2.11.93l36.19 14.47a32.01 32.01 0 0 1 20.12 29.72z" fill="#db6ea2"/><path d="m248 413.67v64.33a10 10 0 0 1 -10 10h-214v-17.92c38.61-5.82 115.28-26.7 165.58-101.53.69.34 1.39.64 2.11.93l36.19 14.47a32.01 32.01 0 0 1 20.12 29.72z" fill="#d46198"/><path d="m448 400h-144c-9.5-23.44-37.15-40-64-40a64 64 0 0 0 0 128c26.85 0 54.5-16.56 64-40h48l16-16 16 16h16l16-16 16 16h16l16-24zm-224 40a16 16 0 1 1 16-16 16 16 0 0 1 -16 16z" fill="#ffb531"/><path d="m464 424-16 24h-16l-16-16-16 16h-16l-16-16-16 16h-48c-9.5 23.44-37.15 40-64 40l77-88h131z" fill="#ffa912"/><circle cx="224" cy="424" fill="none" r="16"/></svg>