<svg enable-background="new 0 0 56.598 56.598" viewBox="0 0 56.598 56.598" xmlns="http://www.w3.org/2000/svg"><path d="m-6.142 31.306h57.052v6h-57.052z" fill="#424a60" transform="matrix(.7071 -.7071 .7071 .7071 -17.7016 25.8758)"/><g fill="#ebba16"><path d="m40.506 9c-.552 0-1-.447-1-1v-7c0-.553.448-1 1-1s1 .447 1 1v7c0 .553-.448 1-1 1z"/><path d="m40.506 32c-.552 0-1-.447-1-1v-7c0-.553.448-1 1-1s1 .447 1 1v7c0 .553-.448 1-1 1z"/><path d="m55.506 17h-7c-.552 0-1-.447-1-1s.448-1 1-1h7c.552 0 1 .447 1 1s-.448 1-1 1z"/><path d="m32.506 17h-7c-.552 0-1-.447-1-1s.448-1 1-1h7c.552 0 1 .447 1 1s-.448 1-1 1z"/><path d="m46.506 11c-.256 0-.512-.098-.707-.293-.391-.391-.391-1.023 0-1.414l4.95-4.95c.391-.391 1.023-.391 1.414 0s.391 1.023 0 1.414l-4.95 4.95c-.195.195-.451.293-.707.293z"/><path d="m51.456 27.95c-.256 0-.512-.098-.707-.293l-4.95-4.95c-.391-.391-.391-1.023 0-1.414s1.023-.391 1.414 0l4.95 4.95c.391.391.391 1.023 0 1.414-.196.196-.452.293-.707.293z"/><path d="m34.506 11c-.256 0-.512-.098-.707-.293l-4.95-4.95c-.391-.391-.391-1.023 0-1.414s1.023-.391 1.414 0l4.95 4.95c.391.391.391 1.023 0 1.414-.195.195-.451.293-.707.293z"/></g><path d="m30.327 16.175h14.376v5.999h-14.376z" fill="#7383bf" transform="matrix(-.7071 .7071 -.7071 -.7071 77.6005 6.2057)"/></svg>