<svg enable-background="new 0 0 512 512" viewBox="0 0 512 512" xmlns="http://www.w3.org/2000/svg"><path d="m478.213 163.264-46.805-80.939c-5.099-9.344-16.107-14.229-27.648-9.963l-52.885 21.248c-10.048-7.232-20.608-13.376-31.531-18.304l-8.043-56.106c-1.365-10.944-10.858-19.2-22.08-19.2h-93.867c-11.221 0-20.715 8.256-22.059 19.008l-8.064 56.277c-10.581 4.8-20.971 10.859-31.467 18.325l-53.033-21.311c-10.197-3.925-22.357.491-27.435 9.771l-46.891 81.087c-5.632 9.557-3.307 21.952 5.44 28.864l44.821 35.029c-.704 6.763-1.045 12.672-1.045 18.283s.341 11.52 1.024 18.283l-44.843 35.051c-8.555 6.763-10.901 18.752-5.44 28.736l46.805 80.96c5.099 9.323 16.128 14.208 27.669 9.941l52.885-21.248c10.048 7.232 20.608 13.376 31.531 18.304l8.043 56.085c1.344 10.965 10.837 19.221 22.059 19.221h73.515c3.989 0 7.616-2.219 9.451-5.739s1.557-7.765-.704-11.029c-16.32-23.381-24.96-50.795-24.96-79.232 0-13.269 1.941-26.56 5.781-39.509.981-3.328.299-6.912-1.856-9.643-2.155-2.709-5.461-4.16-8.939-4.053-1.152.064-2.283.213-5.184.576-53.056 0-96.213-43.157-96.213-96.213s43.157-96.235 96.213-96.235 96.213 43.157 96.021 97.984c-.149 1.131-.299 2.261-.363 3.413-.171 3.477 1.344 6.805 4.053 8.939 2.731 2.155 6.336 2.795 9.643 1.856 20.757-6.187 41.216-7.659 64.384-3.456 2.837.512 5.952-.768 8.341-2.539 2.368-1.771 3.947-5.056 4.267-8 .043-.384.149-2.112.149-2.496 0-6.635-.469-12.885-1.024-18.283l44.823-35.007c8.555-6.741 10.901-18.731 5.461-28.736z"/><path d="m497.989 298.667c-5.888 0-10.667 4.779-10.667 10.667v26.027c-16.085-28.309-48.213-58.027-96-58.027-64.704 0-117.333 52.629-117.333 117.333s52.63 117.333 117.334 117.333c5.888 0 10.667-4.779 10.667-10.667s-4.779-10.667-10.667-10.667c-52.928 0-96-43.072-96-96s43.072-96 96-96c50.304 0 77.973 41.557 84.779 64h-42.112c-5.888 0-10.667 4.779-10.667 10.667s4.779 10.667 10.667 10.667h64c5.888 0 10.667-4.779 10.667-10.667v-64c-.001-5.888-4.758-10.666-10.668-10.666z"/></svg>